<mxfile host="Electron" modified="2023-11-06T17:36:36.126Z" agent="Mozilla/5.0 (Windows NT 10.0; Win64; x64) AppleWebKit/537.36 (KHTML, like Gecko) draw.io/22.0.3 Chrome/114.0.5735.289 Electron/25.8.4 Safari/537.36" etag="b7k2IAQjcnKVdd_FxC02" version="22.0.3" type="device">
  <diagram name="Page-1" id="3GXvk-qFHYWQToduykdK">
    <mxGraphModel dx="1938" dy="1738" grid="1" gridSize="10" guides="1" tooltips="1" connect="1" arrows="1" fold="1" page="1" pageScale="1" pageWidth="850" pageHeight="1100" math="0" shadow="0">
      <root>
        <mxCell id="0" />
        <mxCell id="1" parent="0" />
        <mxCell id="9zJ2QrQVlQ722ekiFvYV-25" style="edgeStyle=orthogonalEdgeStyle;rounded=0;orthogonalLoop=1;jettySize=auto;html=1;entryX=0.5;entryY=0;entryDx=0;entryDy=0;" edge="1" parent="1" source="9zJ2QrQVlQ722ekiFvYV-1" target="9zJ2QrQVlQ722ekiFvYV-9">
          <mxGeometry relative="1" as="geometry" />
        </mxCell>
        <mxCell id="9zJ2QrQVlQ722ekiFvYV-26" style="edgeStyle=orthogonalEdgeStyle;rounded=0;orthogonalLoop=1;jettySize=auto;html=1;entryX=0.5;entryY=0;entryDx=0;entryDy=0;" edge="1" parent="1" source="9zJ2QrQVlQ722ekiFvYV-1" target="9zJ2QrQVlQ722ekiFvYV-5">
          <mxGeometry relative="1" as="geometry" />
        </mxCell>
        <mxCell id="9zJ2QrQVlQ722ekiFvYV-1" value="General Conference" style="swimlane;fontStyle=0;childLayout=stackLayout;horizontal=1;startSize=26;fillColor=none;horizontalStack=0;resizeParent=1;resizeParentMax=0;resizeLast=0;collapsible=1;marginBottom=0;whiteSpace=wrap;html=1;" vertex="1" parent="1">
          <mxGeometry x="380" y="270" width="140" height="104" as="geometry" />
        </mxCell>
        <mxCell id="9zJ2QrQVlQ722ekiFvYV-2" value="+ field: type" style="text;strokeColor=none;fillColor=none;align=left;verticalAlign=top;spacingLeft=4;spacingRight=4;overflow=hidden;rotatable=0;points=[[0,0.5],[1,0.5]];portConstraint=eastwest;whiteSpace=wrap;html=1;" vertex="1" parent="9zJ2QrQVlQ722ekiFvYV-1">
          <mxGeometry y="26" width="140" height="26" as="geometry" />
        </mxCell>
        <mxCell id="9zJ2QrQVlQ722ekiFvYV-3" value="+ field: type" style="text;strokeColor=none;fillColor=none;align=left;verticalAlign=top;spacingLeft=4;spacingRight=4;overflow=hidden;rotatable=0;points=[[0,0.5],[1,0.5]];portConstraint=eastwest;whiteSpace=wrap;html=1;" vertex="1" parent="9zJ2QrQVlQ722ekiFvYV-1">
          <mxGeometry y="52" width="140" height="26" as="geometry" />
        </mxCell>
        <mxCell id="9zJ2QrQVlQ722ekiFvYV-4" value="+ field: type" style="text;strokeColor=none;fillColor=none;align=left;verticalAlign=top;spacingLeft=4;spacingRight=4;overflow=hidden;rotatable=0;points=[[0,0.5],[1,0.5]];portConstraint=eastwest;whiteSpace=wrap;html=1;" vertex="1" parent="9zJ2QrQVlQ722ekiFvYV-1">
          <mxGeometry y="78" width="140" height="26" as="geometry" />
        </mxCell>
        <mxCell id="9zJ2QrQVlQ722ekiFvYV-5" value="Institution" style="swimlane;fontStyle=1;align=center;verticalAlign=top;childLayout=stackLayout;horizontal=1;startSize=26;horizontalStack=0;resizeParent=1;resizeParentMax=0;resizeLast=0;collapsible=1;marginBottom=0;whiteSpace=wrap;html=1;" vertex="1" parent="1">
          <mxGeometry x="470" y="430" width="160" height="112" as="geometry" />
        </mxCell>
        <mxCell id="9zJ2QrQVlQ722ekiFvYV-39" value="+ name: string" style="text;strokeColor=none;fillColor=none;align=left;verticalAlign=top;spacingLeft=4;spacingRight=4;overflow=hidden;rotatable=0;points=[[0,0.5],[1,0.5]];portConstraint=eastwest;whiteSpace=wrap;html=1;" vertex="1" parent="9zJ2QrQVlQ722ekiFvYV-5">
          <mxGeometry y="26" width="160" height="26" as="geometry" />
        </mxCell>
        <mxCell id="9zJ2QrQVlQ722ekiFvYV-6" value="+ field: type" style="text;strokeColor=none;fillColor=none;align=left;verticalAlign=top;spacingLeft=4;spacingRight=4;overflow=hidden;rotatable=0;points=[[0,0.5],[1,0.5]];portConstraint=eastwest;whiteSpace=wrap;html=1;" vertex="1" parent="9zJ2QrQVlQ722ekiFvYV-5">
          <mxGeometry y="52" width="160" height="26" as="geometry" />
        </mxCell>
        <mxCell id="9zJ2QrQVlQ722ekiFvYV-7" value="" style="line;strokeWidth=1;fillColor=none;align=left;verticalAlign=middle;spacingTop=-1;spacingLeft=3;spacingRight=3;rotatable=0;labelPosition=right;points=[];portConstraint=eastwest;strokeColor=inherit;" vertex="1" parent="9zJ2QrQVlQ722ekiFvYV-5">
          <mxGeometry y="78" width="160" height="8" as="geometry" />
        </mxCell>
        <mxCell id="9zJ2QrQVlQ722ekiFvYV-8" value="+ method(type): type" style="text;strokeColor=none;fillColor=none;align=left;verticalAlign=top;spacingLeft=4;spacingRight=4;overflow=hidden;rotatable=0;points=[[0,0.5],[1,0.5]];portConstraint=eastwest;whiteSpace=wrap;html=1;" vertex="1" parent="9zJ2QrQVlQ722ekiFvYV-5">
          <mxGeometry y="86" width="160" height="26" as="geometry" />
        </mxCell>
        <mxCell id="9zJ2QrQVlQ722ekiFvYV-27" style="edgeStyle=orthogonalEdgeStyle;rounded=0;orthogonalLoop=1;jettySize=auto;html=1;entryX=0.5;entryY=0;entryDx=0;entryDy=0;" edge="1" parent="1" source="9zJ2QrQVlQ722ekiFvYV-9" target="9zJ2QrQVlQ722ekiFvYV-13">
          <mxGeometry relative="1" as="geometry" />
        </mxCell>
        <mxCell id="9zJ2QrQVlQ722ekiFvYV-28" style="edgeStyle=orthogonalEdgeStyle;rounded=0;orthogonalLoop=1;jettySize=auto;html=1;entryX=0.5;entryY=0;entryDx=0;entryDy=0;" edge="1" parent="1" source="9zJ2QrQVlQ722ekiFvYV-9" target="9zJ2QrQVlQ722ekiFvYV-17">
          <mxGeometry relative="1" as="geometry" />
        </mxCell>
        <mxCell id="9zJ2QrQVlQ722ekiFvYV-29" style="edgeStyle=orthogonalEdgeStyle;rounded=0;orthogonalLoop=1;jettySize=auto;html=1;entryX=0.5;entryY=0;entryDx=0;entryDy=0;" edge="1" parent="1" source="9zJ2QrQVlQ722ekiFvYV-9" target="9zJ2QrQVlQ722ekiFvYV-21">
          <mxGeometry relative="1" as="geometry" />
        </mxCell>
        <mxCell id="9zJ2QrQVlQ722ekiFvYV-9" value="Division" style="swimlane;fontStyle=1;align=center;verticalAlign=top;childLayout=stackLayout;horizontal=1;startSize=26;horizontalStack=0;resizeParent=1;resizeParentMax=0;resizeLast=0;collapsible=1;marginBottom=0;whiteSpace=wrap;html=1;" vertex="1" parent="1">
          <mxGeometry x="260" y="430" width="160" height="112" as="geometry" />
        </mxCell>
        <mxCell id="9zJ2QrQVlQ722ekiFvYV-10" value="+ name: string" style="text;strokeColor=none;fillColor=none;align=left;verticalAlign=top;spacingLeft=4;spacingRight=4;overflow=hidden;rotatable=0;points=[[0,0.5],[1,0.5]];portConstraint=eastwest;whiteSpace=wrap;html=1;" vertex="1" parent="9zJ2QrQVlQ722ekiFvYV-9">
          <mxGeometry y="26" width="160" height="26" as="geometry" />
        </mxCell>
        <mxCell id="9zJ2QrQVlQ722ekiFvYV-40" value="+ field: type" style="text;strokeColor=none;fillColor=none;align=left;verticalAlign=top;spacingLeft=4;spacingRight=4;overflow=hidden;rotatable=0;points=[[0,0.5],[1,0.5]];portConstraint=eastwest;whiteSpace=wrap;html=1;" vertex="1" parent="9zJ2QrQVlQ722ekiFvYV-9">
          <mxGeometry y="52" width="160" height="26" as="geometry" />
        </mxCell>
        <mxCell id="9zJ2QrQVlQ722ekiFvYV-11" value="" style="line;strokeWidth=1;fillColor=none;align=left;verticalAlign=middle;spacingTop=-1;spacingLeft=3;spacingRight=3;rotatable=0;labelPosition=right;points=[];portConstraint=eastwest;strokeColor=inherit;" vertex="1" parent="9zJ2QrQVlQ722ekiFvYV-9">
          <mxGeometry y="78" width="160" height="8" as="geometry" />
        </mxCell>
        <mxCell id="9zJ2QrQVlQ722ekiFvYV-12" value="+ method(type): type" style="text;strokeColor=none;fillColor=none;align=left;verticalAlign=top;spacingLeft=4;spacingRight=4;overflow=hidden;rotatable=0;points=[[0,0.5],[1,0.5]];portConstraint=eastwest;whiteSpace=wrap;html=1;" vertex="1" parent="9zJ2QrQVlQ722ekiFvYV-9">
          <mxGeometry y="86" width="160" height="26" as="geometry" />
        </mxCell>
        <mxCell id="9zJ2QrQVlQ722ekiFvYV-13" value="Sending" style="swimlane;fontStyle=1;align=center;verticalAlign=top;childLayout=stackLayout;horizontal=1;startSize=26;horizontalStack=0;resizeParent=1;resizeParentMax=0;resizeLast=0;collapsible=1;marginBottom=0;whiteSpace=wrap;html=1;" vertex="1" parent="1">
          <mxGeometry x="-280" y="550" width="160" height="86" as="geometry" />
        </mxCell>
        <mxCell id="9zJ2QrQVlQ722ekiFvYV-14" value="+ field: type" style="text;strokeColor=none;fillColor=none;align=left;verticalAlign=top;spacingLeft=4;spacingRight=4;overflow=hidden;rotatable=0;points=[[0,0.5],[1,0.5]];portConstraint=eastwest;whiteSpace=wrap;html=1;" vertex="1" parent="9zJ2QrQVlQ722ekiFvYV-13">
          <mxGeometry y="26" width="160" height="26" as="geometry" />
        </mxCell>
        <mxCell id="9zJ2QrQVlQ722ekiFvYV-15" value="" style="line;strokeWidth=1;fillColor=none;align=left;verticalAlign=middle;spacingTop=-1;spacingLeft=3;spacingRight=3;rotatable=0;labelPosition=right;points=[];portConstraint=eastwest;strokeColor=inherit;" vertex="1" parent="9zJ2QrQVlQ722ekiFvYV-13">
          <mxGeometry y="52" width="160" height="8" as="geometry" />
        </mxCell>
        <mxCell id="9zJ2QrQVlQ722ekiFvYV-16" value="+ method(type): type" style="text;strokeColor=none;fillColor=none;align=left;verticalAlign=top;spacingLeft=4;spacingRight=4;overflow=hidden;rotatable=0;points=[[0,0.5],[1,0.5]];portConstraint=eastwest;whiteSpace=wrap;html=1;" vertex="1" parent="9zJ2QrQVlQ722ekiFvYV-13">
          <mxGeometry y="60" width="160" height="26" as="geometry" />
        </mxCell>
        <mxCell id="9zJ2QrQVlQ722ekiFvYV-17" value="Calling" style="swimlane;fontStyle=1;align=center;verticalAlign=top;childLayout=stackLayout;horizontal=1;startSize=26;horizontalStack=0;resizeParent=1;resizeParentMax=0;resizeLast=0;collapsible=1;marginBottom=0;whiteSpace=wrap;html=1;" vertex="1" parent="1">
          <mxGeometry x="-100" y="550" width="160" height="86" as="geometry" />
        </mxCell>
        <mxCell id="9zJ2QrQVlQ722ekiFvYV-18" value="+ field: type" style="text;strokeColor=none;fillColor=none;align=left;verticalAlign=top;spacingLeft=4;spacingRight=4;overflow=hidden;rotatable=0;points=[[0,0.5],[1,0.5]];portConstraint=eastwest;whiteSpace=wrap;html=1;" vertex="1" parent="9zJ2QrQVlQ722ekiFvYV-17">
          <mxGeometry y="26" width="160" height="26" as="geometry" />
        </mxCell>
        <mxCell id="9zJ2QrQVlQ722ekiFvYV-19" value="" style="line;strokeWidth=1;fillColor=none;align=left;verticalAlign=middle;spacingTop=-1;spacingLeft=3;spacingRight=3;rotatable=0;labelPosition=right;points=[];portConstraint=eastwest;strokeColor=inherit;" vertex="1" parent="9zJ2QrQVlQ722ekiFvYV-17">
          <mxGeometry y="52" width="160" height="8" as="geometry" />
        </mxCell>
        <mxCell id="9zJ2QrQVlQ722ekiFvYV-20" value="+ method(type): type" style="text;strokeColor=none;fillColor=none;align=left;verticalAlign=top;spacingLeft=4;spacingRight=4;overflow=hidden;rotatable=0;points=[[0,0.5],[1,0.5]];portConstraint=eastwest;whiteSpace=wrap;html=1;" vertex="1" parent="9zJ2QrQVlQ722ekiFvYV-17">
          <mxGeometry y="60" width="160" height="26" as="geometry" />
        </mxCell>
        <mxCell id="9zJ2QrQVlQ722ekiFvYV-21" value="Host" style="swimlane;fontStyle=1;align=center;verticalAlign=top;childLayout=stackLayout;horizontal=1;startSize=26;horizontalStack=0;resizeParent=1;resizeParentMax=0;resizeLast=0;collapsible=1;marginBottom=0;whiteSpace=wrap;html=1;" vertex="1" parent="1">
          <mxGeometry x="80" y="550" width="160" height="86" as="geometry" />
        </mxCell>
        <mxCell id="9zJ2QrQVlQ722ekiFvYV-22" value="+ field: type" style="text;strokeColor=none;fillColor=none;align=left;verticalAlign=top;spacingLeft=4;spacingRight=4;overflow=hidden;rotatable=0;points=[[0,0.5],[1,0.5]];portConstraint=eastwest;whiteSpace=wrap;html=1;" vertex="1" parent="9zJ2QrQVlQ722ekiFvYV-21">
          <mxGeometry y="26" width="160" height="26" as="geometry" />
        </mxCell>
        <mxCell id="9zJ2QrQVlQ722ekiFvYV-23" value="" style="line;strokeWidth=1;fillColor=none;align=left;verticalAlign=middle;spacingTop=-1;spacingLeft=3;spacingRight=3;rotatable=0;labelPosition=right;points=[];portConstraint=eastwest;strokeColor=inherit;" vertex="1" parent="9zJ2QrQVlQ722ekiFvYV-21">
          <mxGeometry y="52" width="160" height="8" as="geometry" />
        </mxCell>
        <mxCell id="9zJ2QrQVlQ722ekiFvYV-24" value="+ method(type): type" style="text;strokeColor=none;fillColor=none;align=left;verticalAlign=top;spacingLeft=4;spacingRight=4;overflow=hidden;rotatable=0;points=[[0,0.5],[1,0.5]];portConstraint=eastwest;whiteSpace=wrap;html=1;" vertex="1" parent="9zJ2QrQVlQ722ekiFvYV-21">
          <mxGeometry y="60" width="160" height="26" as="geometry" />
        </mxCell>
        <mxCell id="9zJ2QrQVlQ722ekiFvYV-42" value="" style="edgeStyle=orthogonalEdgeStyle;rounded=0;orthogonalLoop=1;jettySize=auto;html=1;" edge="1" parent="1" source="9zJ2QrQVlQ722ekiFvYV-30" target="9zJ2QrQVlQ722ekiFvYV-41">
          <mxGeometry relative="1" as="geometry">
            <Array as="points">
              <mxPoint y="276" />
              <mxPoint y="80" />
            </Array>
          </mxGeometry>
        </mxCell>
        <mxCell id="9zJ2QrQVlQ722ekiFvYV-45" style="edgeStyle=orthogonalEdgeStyle;rounded=0;orthogonalLoop=1;jettySize=auto;html=1;entryX=1;entryY=0.5;entryDx=0;entryDy=0;" edge="1" parent="1" source="9zJ2QrQVlQ722ekiFvYV-30" target="9zJ2QrQVlQ722ekiFvYV-44">
          <mxGeometry relative="1" as="geometry">
            <Array as="points">
              <mxPoint y="276" />
              <mxPoint y="160" />
            </Array>
          </mxGeometry>
        </mxCell>
        <mxCell id="9zJ2QrQVlQ722ekiFvYV-50" style="edgeStyle=orthogonalEdgeStyle;rounded=0;orthogonalLoop=1;jettySize=auto;html=1;" edge="1" parent="1" source="9zJ2QrQVlQ722ekiFvYV-30" target="9zJ2QrQVlQ722ekiFvYV-46">
          <mxGeometry relative="1" as="geometry" />
        </mxCell>
        <mxCell id="9zJ2QrQVlQ722ekiFvYV-52" style="edgeStyle=orthogonalEdgeStyle;rounded=0;orthogonalLoop=1;jettySize=auto;html=1;entryX=1;entryY=0.5;entryDx=0;entryDy=0;" edge="1" parent="1" source="9zJ2QrQVlQ722ekiFvYV-30" target="9zJ2QrQVlQ722ekiFvYV-47">
          <mxGeometry relative="1" as="geometry" />
        </mxCell>
        <mxCell id="9zJ2QrQVlQ722ekiFvYV-55" style="edgeStyle=orthogonalEdgeStyle;rounded=0;orthogonalLoop=1;jettySize=auto;html=1;entryX=1;entryY=0.5;entryDx=0;entryDy=0;" edge="1" parent="1" source="9zJ2QrQVlQ722ekiFvYV-30" target="9zJ2QrQVlQ722ekiFvYV-49">
          <mxGeometry relative="1" as="geometry" />
        </mxCell>
        <mxCell id="9zJ2QrQVlQ722ekiFvYV-30" value="ISE budget" style="swimlane;fontStyle=1;align=center;verticalAlign=top;childLayout=stackLayout;horizontal=1;startSize=26;horizontalStack=0;resizeParent=1;resizeParentMax=0;resizeLast=0;collapsible=1;marginBottom=0;whiteSpace=wrap;html=1;" vertex="1" parent="1">
          <mxGeometry x="70" y="220" width="160" height="112" as="geometry" />
        </mxCell>
        <mxCell id="9zJ2QrQVlQ722ekiFvYV-31" value="+ code: int" style="text;strokeColor=none;fillColor=none;align=left;verticalAlign=top;spacingLeft=4;spacingRight=4;overflow=hidden;rotatable=0;points=[[0,0.5],[1,0.5]];portConstraint=eastwest;whiteSpace=wrap;html=1;" vertex="1" parent="9zJ2QrQVlQ722ekiFvYV-30">
          <mxGeometry y="26" width="160" height="26" as="geometry" />
        </mxCell>
        <mxCell id="9zJ2QrQVlQ722ekiFvYV-32" value="" style="line;strokeWidth=1;fillColor=none;align=left;verticalAlign=middle;spacingTop=-1;spacingLeft=3;spacingRight=3;rotatable=0;labelPosition=right;points=[];portConstraint=eastwest;strokeColor=inherit;" vertex="1" parent="9zJ2QrQVlQ722ekiFvYV-30">
          <mxGeometry y="52" width="160" height="8" as="geometry" />
        </mxCell>
        <mxCell id="9zJ2QrQVlQ722ekiFvYV-33" value="+ get_code(): int" style="text;strokeColor=none;fillColor=none;align=left;verticalAlign=top;spacingLeft=4;spacingRight=4;overflow=hidden;rotatable=0;points=[[0,0.5],[1,0.5]];portConstraint=eastwest;whiteSpace=wrap;html=1;" vertex="1" parent="9zJ2QrQVlQ722ekiFvYV-30">
          <mxGeometry y="60" width="160" height="26" as="geometry" />
        </mxCell>
        <mxCell id="9zJ2QrQVlQ722ekiFvYV-38" value="+ set_code(int): null" style="text;strokeColor=none;fillColor=none;align=left;verticalAlign=top;spacingLeft=4;spacingRight=4;overflow=hidden;rotatable=0;points=[[0,0.5],[1,0.5]];portConstraint=eastwest;whiteSpace=wrap;html=1;" vertex="1" parent="9zJ2QrQVlQ722ekiFvYV-30">
          <mxGeometry y="86" width="160" height="26" as="geometry" />
        </mxCell>
        <mxCell id="9zJ2QrQVlQ722ekiFvYV-41" value="Code 2 - GC Temporary" style="whiteSpace=wrap;html=1;verticalAlign=top;fontStyle=1;startSize=26;" vertex="1" parent="1">
          <mxGeometry x="-190" y="50" width="120" height="60" as="geometry" />
        </mxCell>
        <mxCell id="9zJ2QrQVlQ722ekiFvYV-44" value="Code 3 - Direct action" style="whiteSpace=wrap;html=1;verticalAlign=top;fontStyle=1;startSize=26;" vertex="1" parent="1">
          <mxGeometry x="-190" y="130" width="120" height="60" as="geometry" />
        </mxCell>
        <mxCell id="9zJ2QrQVlQ722ekiFvYV-46" value="Code 4 - Institutionally or locally funded" style="whiteSpace=wrap;html=1;verticalAlign=top;fontStyle=1;startSize=26;" vertex="1" parent="1">
          <mxGeometry x="-190" y="210" width="120" height="60" as="geometry" />
        </mxCell>
        <mxCell id="9zJ2QrQVlQ722ekiFvYV-47" value="Code 5 -&amp;nbsp; Locally Employed Spouse" style="whiteSpace=wrap;html=1;verticalAlign=top;fontStyle=1;startSize=26;" vertex="1" parent="1">
          <mxGeometry x="-190" y="292" width="120" height="60" as="geometry" />
        </mxCell>
        <mxCell id="9zJ2QrQVlQ722ekiFvYV-48" value="Code 6 - Flat rate institutionally funded" style="whiteSpace=wrap;html=1;verticalAlign=top;fontStyle=1;startSize=26;" vertex="1" parent="1">
          <mxGeometry x="-190" y="370" width="120" height="60" as="geometry" />
        </mxCell>
        <mxCell id="9zJ2QrQVlQ722ekiFvYV-49" value="Code 1 - Normal" style="whiteSpace=wrap;html=1;verticalAlign=top;fontStyle=1;startSize=26;" vertex="1" parent="1">
          <mxGeometry x="-190" y="-30" width="120" height="60" as="geometry" />
        </mxCell>
        <mxCell id="9zJ2QrQVlQ722ekiFvYV-53" style="edgeStyle=orthogonalEdgeStyle;rounded=0;orthogonalLoop=1;jettySize=auto;html=1;entryX=1;entryY=0.5;entryDx=0;entryDy=0;" edge="1" parent="1" source="9zJ2QrQVlQ722ekiFvYV-30" target="9zJ2QrQVlQ722ekiFvYV-48">
          <mxGeometry relative="1" as="geometry">
            <Array as="points">
              <mxPoint y="276" />
              <mxPoint y="400" />
            </Array>
          </mxGeometry>
        </mxCell>
      </root>
    </mxGraphModel>
  </diagram>
</mxfile>
